<svg width="188.000000" height="55.000000" viewBox="0 0 188 55" fill="none" xmlns="http://www.w3.org/2000/svg" xmlns:xlink="http://www.w3.org/1999/xlink">
	<desc>
			Created with Pixso.
	</desc>
	<defs/>
	<path id="Star 4" d="M130.5 0L128.74 4.74L124 6.5L128.74 8.25L130.5 13L132.25 8.25L137 6.5L132.25 4.74L130.5 0Z" fill="#E21F4D" fill-opacity="1.000000" fill-rule="evenodd"/>
	<path id="DentistAm" d="M2.07 11.55L11.97 11.59C20.16 11.59 26.77 18.61 26.77 27.34C26.77 36.03 20.16 43 11.97 43L2.07 42.96L2.07 11.55ZM92.1 18.16C92.1 19.83 90.79 21.13 89.22 21.13C87.64 21.13 86.38 19.83 86.38 18.16C86.38 16.54 87.64 15.19 89.22 15.19C90.79 15.19 92.1 16.54 92.1 18.16ZM7.87 37.11L11.74 37.11C16.78 37.11 20.88 32.7 20.88 27.34C20.88 21.99 16.78 17.62 11.74 17.62L7.87 17.67L7.87 37.11ZM79.16 37.87L83.61 37.87L83.61 43L78.3 43.05C75.11 43.05 72.54 40.53 72.54 37.47L72.54 17.85L77.76 17.85L77.81 23.43L83.61 23.43L83.61 28.47L77.81 28.47L77.81 36.57C77.81 37.29 78.39 37.87 79.16 37.87ZM121.26 37.87L125.71 37.87L125.71 43L120.4 43.05C117.21 43.05 114.64 40.53 114.64 37.47L114.64 17.85L119.86 17.85L119.91 23.43L125.71 23.43L125.71 28.47L119.91 28.47L119.91 36.57C119.91 37.29 120.49 37.87 121.26 37.87ZM101.69 29.95C101.83 30.09 106.55 31.66 106.82 31.75C108.26 32.25 109.52 32.97 110.38 33.87C112.76 36.34 112.13 39.76 109.25 41.65C106.15 43.9 100.61 43.9 97.51 41.65C95.84 40.53 94.94 38.95 94.94 37.29L100.93 37.29C100.93 38.01 101.92 38.77 103.4 38.77C105.88 38.73 106.87 36.7 104.44 35.94C104.39 35.94 99.98 34.41 99.94 34.41C98.5 33.96 97.28 33.24 96.38 32.29C94 29.82 94.63 26.4 97.51 24.51C100.61 22.26 106.15 22.26 109.25 24.51C110.92 25.63 111.86 27.21 111.86 28.87L105.83 28.87C105.79 27.88 104.39 27.39 103.4 27.39C101.38 27.39 99.94 28.87 101.69 29.95ZM48.16 33.15C48.16 33.82 48.11 34.5 47.98 35.13L34.3 35.13C35.02 36.66 36.55 37.78 38.3 37.78C39.52 37.78 40.6 37.24 41.41 36.43L41.45 36.43L46.76 38.41L46.76 38.46C46.36 39.18 45.82 39.85 45.23 40.44C43.48 42.28 41 43.41 38.3 43.41C32.9 43.41 28.49 38.82 28.49 33.15C28.49 27.52 32.9 22.93 38.3 22.93C43.75 22.93 48.16 27.52 48.16 33.15ZM60.06 28.74C57.77 28.74 55.92 30.81 55.92 33.24L55.92 43L50.79 43L50.79 23.29L55.92 23.29L55.92 24.87C57 23.88 58.58 23.38 60.06 23.38C65.19 23.38 69.38 27.79 69.38 33.24L69.38 43L64.16 43L64.16 33.24C64.16 30.81 62.31 28.74 60.06 28.74ZM91.87 43.05L86.61 43.05L86.61 23.34L91.87 23.34L91.87 43.05ZM38.3 28.42C36.5 28.42 34.97 29.59 34.3 31.17L42.26 31.12C41.54 29.59 40.06 28.42 38.3 28.42Z" fill="#3F3F3F" fill-opacity="1.000000" fill-rule="evenodd"/>
	<path id="DentistAm" d="M135.37 11.55L143.78 11.55L152.33 43L146.35 43L144.19 35.17L135.05 35.17L132.94 43L126.95 43L135.37 11.55ZM139.64 17.85L136.54 29.68L142.7 29.68L139.64 17.85ZM159.28 24.82C160.5 23.79 161.98 23.29 163.47 23.29C164.95 23.29 166.35 23.7 167.61 24.37C168.55 24.87 169.41 25.54 170.17 26.35C171.84 24.51 174.27 23.34 176.92 23.34C177.69 23.34 178.41 23.43 179.13 23.61C183.18 24.64 186.19 28.51 186.19 33.19L186.19 43L180.97 43L180.97 33.15C180.97 30.72 179.13 28.65 176.83 28.65C174.99 28.65 173.41 30.09 172.87 31.89C172.78 32.25 172.74 32.65 172.74 33.06L172.74 43L167.56 43L167.56 33.19C167.56 32.88 167.52 32.52 167.43 32.2C167.02 30.27 165.4 28.74 163.42 28.74C161.13 28.74 159.28 30.81 159.28 33.19L159.28 43L154.15 43L154.15 23.25L159.28 23.25L159.28 24.82Z" fill="#E21F4D" fill-opacity="1.000000" fill-rule="evenodd"/>
</svg>
