<svg width="14.000000" height="14.000000" viewBox="0 0 14 14" fill="none" xmlns="http://www.w3.org/2000/svg" xmlns:xlink="http://www.w3.org/1999/xlink">
	<desc>
			Created with Pixso.
	</desc>
	<defs>
		<clipPath id="clip1_633">
			<rect id="Frame" rx="0.000000" width="13.235294" height="13.235294" transform="translate(0.382353 0.382353)" fill="white" fill-opacity="0"/>
		</clipPath>
	</defs>
	<rect id="Frame" rx="0.000000" width="13.235294" height="13.235294" transform="translate(0.382353 0.382353)" fill="#FFFFFF" fill-opacity="0"/>
	<g clip-path="url(#clip1_633)">
		<path id="Vector" d="M6.71 4.33C5.96 4.34 5.22 4.58 4.62 5.03C4.01 5.49 3.57 6.13 3.36 6.85C3.14 7.58 3.17 8.35 3.44 9.06C3.7 9.77 4.19 10.37 4.83 10.78C5.46 11.19 6.22 11.38 6.97 11.33C7.72 11.27 8.44 10.97 9.01 10.48C9.58 9.98 9.98 9.31 10.14 8.57C10.3 7.83 10.21 7.06 9.9 6.37C9.86 6.29 9.86 6.2 9.89 6.11C9.93 6.03 9.99 5.96 10.07 5.92C10.16 5.88 10.25 5.88 10.34 5.91C10.42 5.94 10.49 6 10.53 6.08C10.91 6.91 11.01 7.83 10.82 8.72C10.63 9.61 10.16 10.41 9.47 11.01C8.79 11.6 7.93 11.96 7.02 12.02C6.11 12.09 5.21 11.86 4.45 11.37C3.68 10.88 3.1 10.16 2.78 9.31C2.46 8.46 2.43 7.53 2.68 6.65C2.94 5.78 3.47 5.02 4.2 4.47C4.92 3.93 5.81 3.64 6.71 3.63L6.71 4.33Z" fill="#E21F4D" fill-opacity="1.000000" fill-rule="evenodd"/>
		<path id="Vector" d="M6.71 5.36L6.71 2.61C6.71 2.58 6.72 2.54 6.74 2.51C6.76 2.49 6.79 2.46 6.82 2.45C6.85 2.44 6.88 2.43 6.91 2.44C6.95 2.44 6.98 2.45 7 2.47L8.65 3.85C8.67 3.87 8.69 3.89 8.7 3.91C8.71 3.93 8.72 3.96 8.72 3.98C8.72 4.01 8.71 4.04 8.7 4.06C8.69 4.08 8.67 4.1 8.65 4.12L7 5.5C6.98 5.52 6.95 5.53 6.91 5.53C6.88 5.54 6.85 5.53 6.82 5.52C6.79 5.51 6.76 5.48 6.74 5.45C6.72 5.43 6.71 5.39 6.71 5.36L6.71 5.36Z" fill="#E21F4D" fill-opacity="1.000000" fill-rule="nonzero"/>
	</g>
</svg>
