<svg width="26.000000" height="28.000000" viewBox="0 0 26 28" fill="none" xmlns="http://www.w3.org/2000/svg" xmlns:xlink="http://www.w3.org/1999/xlink">
	<desc>
			Created with Pixso.
	</desc>
	<defs/>
	<circle id="Ellipse 1978" cx="13.000000" cy="15.000000" r="13.000000" fill="#FFFFFF" fill-opacity="1.000000"/>
	<path id="user" d="M15.56 11.25C15.56 12.77 14.31 14 12.81 14C11.28 14 10.06 12.77 10.06 11.25C10.06 9.74 11.28 8.5 12.81 8.5C14.31 8.5 15.56 9.74 15.56 11.25ZM11.71 15.03L13.88 15.03C15.94 15.03 17.62 16.7 17.62 18.76C17.62 19.17 17.28 19.5 16.87 19.5L8.73 19.5C8.32 19.5 8 19.17 8 18.76C8 16.7 9.65 15.03 11.71 15.03Z" fill="#E21F4D" fill-opacity="1.000000" fill-rule="evenodd"/>
</svg>
